<svg id="Layer_2" data-name="Layer 2" xmlns="http://www.w3.org/2000/svg" viewBox="0 0 312.61 70.09"><defs><style>.cls-1{fill:#fff;}</style></defs><g id="Layer_1-2" data-name="Layer 1-2"><path class="cls-1" d="M282.88,70.09h0a14.61,14.61,0,0,1-10.33-24.93l24.94-24.94V55.48a14.6,14.6,0,0,1-4.28,10.33h0A14.35,14.35,0,0,1,288.47,69a14.55,14.55,0,0,1-5.59,1.11Z" transform="translate(0 0)"/><path class="cls-1" d="M257.14,44.34a14.61,14.61,0,0,1-14.61-14.61h0a14.71,14.71,0,0,1,4.28-10.33h0a14.58,14.58,0,0,1,10.33-4.28H292.4L267.46,40.06a14.53,14.53,0,0,1-10.33,4.28Z" transform="translate(0 0)"/><path class="cls-1" d="M304,21.07a5,5,0,1,1,7.13,0A5.06,5.06,0,0,1,304,21.07Z" transform="translate(0 0)"/><path class="cls-1" d="M291.54,8.6a5,5,0,1,1,7.13,0A5.06,5.06,0,0,1,291.54,8.6Z" transform="translate(0 0)"/><path class="cls-1" d="M0,15.33H24.85c8.85,0,14.23,5.46,14.23,13.77s-4.69,11.23-9.62,11.54v.46c4.69.08,11.62,3.38,11.62,12.54C41.08,62.26,35.15,69,27.23,69H0ZM10.16,37.72H22.7c3.69,0,5.85-2.15,5.85-5.69V29.64C28.55,26,26.4,24,22.7,24H10.16Zm0,22.7H24.32c3.85,0,6.15-2.08,6.15-5.85V52c0-3.77-2.31-5.92-6.15-5.92H10.16Z" transform="translate(0 0)"/><path class="cls-1" d="M47.7,48.87c0-12.69,6.85-20.93,18.62-20.93,12.54,0,18.31,9.23,18.31,20.23V51.4H57.93v1c0,5.77,3.31,9.69,9.77,9.69,4.85,0,7.77-2.31,10.23-5.46l5.31,5.92c-3.31,4.54-9.16,7.39-16.62,7.39-11.85,0-18.93-8.23-18.93-21.08Zm10.23-4.15v.61H74.39v-.69c0-5.54-2.85-9.31-7.92-9.31S57.93,39.18,57.93,44.72Z" transform="translate(0 0)"/><path class="cls-1" d="M90.63,48.87c0-12.69,6.85-20.93,18.62-20.93,12.54,0,18.31,9.23,18.31,20.23V51.4h-26.7v1c0,5.77,3.31,9.69,9.77,9.69,4.85,0,7.77-2.31,10.23-5.46l5.31,5.92c-3.31,4.54-9.15,7.39-16.62,7.39-11.85,0-18.93-8.23-18.93-21.08Zm10.23-4.15v.61h16.46v-.69c0-5.54-2.85-9.31-7.92-9.31S100.86,39.18,100.86,44.72Z" transform="translate(0 0)"/><path class="cls-1" d="M170.1,69l-4.31-13.69H146.71L142.48,69H132.17l18-53.7h12.62L180.64,69ZM156.41,24.56H156l-6.85,22.08h14.16l-6.92-22.08Z" transform="translate(0 0)"/><path class="cls-1" d="M186.34,69V60.88h7.08V23.48h-7.08V15.33h24.39v8.15h-7.16V60.87h7.16V69H186.34Z" transform="translate(0 0)"/></g></svg>