<svg xmlns="http://www.w3.org/2000/svg" width="16" height="16" viewBox="0 0 512 512"><path fill="#5865f2" d="M256 0c141.38 0 256 114.61 256 256S397.38 512 256 512 0 397.38 0 256 114.61 0 256 0zm104.93 160.62a250.43 250.43 0 0 0-62.38-19.18 173.88 173.88 0 0 0-7.97 16.24 232.56 232.56 0 0 0-34.62-2.6c-11.56 0-23.2.88-34.62 2.58a165.5 165.5 0 0 0-7.98-16.22 252.58 252.58 0 0 0-62.4 19.22c-39.48 58.4-50.18 115.36-44.83 171.5a251.49 251.49 0 0 0 76.5 38.4A186.6 186.6 0 0 0 199 344.13a161.68 161.68 0 0 1-25.8-12.32c2.16-1.57 4.27-3.19 6.32-4.76a179.97 179.97 0 0 0 76.48 17.1c26.44 0 52.56-5.86 76.47-17.09a89.89 89.89 0 0 0 6.33 4.76 162.7 162.7 0 0 1-25.86 12.35 183.97 183.97 0 0 0 16.39 26.4 250.5 250.5 0 0 0 76.55-38.4c6.27-65.1-10.73-121.52-44.95-171.55zM205.78 297.63c-14.9 0-27.23-13.53-27.23-30.18 0-16.64 11.9-30.29 27.18-30.29 15.3 0 27.51 13.65 27.25 30.3-.26 16.64-12 30.17-27.2 30.17zm100.44 0c-14.93 0-27.2-13.53-27.2-30.18 0-16.64 11.89-30.29 27.2-30.29 15.31 0 27.44 13.65 27.18 30.3-.26 16.64-11.99 30.17-27.18 30.17z"/></svg>