<svg xmlns="http://www.w3.org/2000/svg" xmlns:xlink="http://www.w3.org/1999/xlink" viewBox="0 0 372 209" width="372" height="209" preserveAspectRatio="xMidYMid meet" style="width: 100%; height: 100%; transform: translate3d(0px, 0px, 0px); content-visibility: visible;"><defs><clipPath id="__lottie_element_36"><rect width="372" height="209" x="0" y="0"></rect></clipPath><clipPath id="__lottie_element_39"><path d="M0,0 L1200,0 L1200,1200 L0,1200z"></path></clipPath><filter id="__lottie_element_41" x="-100%" y="-100%" width="300%" height="300%"><feGaussianBlur result="filter_result_0" stdDeviation="0 0" edgeMode="wrap"></feGaussianBlur></filter></defs><g clip-path="url(#__lottie_element_36)"><g transform="matrix(1.5399999618530273,0,0,1.5399999618530273,246.70016479492188,139.4151153564453)" opacity="1" style="display: block;"><g opacity="1" transform="matrix(1,0,0,1,0,0)"><path fill="rgb(0,0,0)" fill-opacity="1" d=" M-2.553999900817871,0 C-2.553999900817871,0 -2.553999900817871,-5.443999767303467 -2.553999900817871,-5.443999767303467 C-2.553999900817871,-5.443999767303467 -7.330999851226807,-5.443999767303467 -7.330999851226807,-5.443999767303467 C-7.330999851226807,-5.443999767303467 -7.330999851226807,-30.4060001373291 -7.330999851226807,-30.4060001373291 C-7.330999851226807,-30.4060001373291 -2.553999900817871,-30.4060001373291 -2.553999900817871,-30.4060001373291 C-2.553999900817871,-30.4060001373291 -2.553999900817871,-35.849998474121094 -2.553999900817871,-35.849998474121094 C-2.553999900817871,-35.849998474121094 -18.836000442504883,-35.849998474121094 -18.836000442504883,-35.849998474121094 C-18.836000442504883,-35.849998474121094 -18.836000442504883,-30.4060001373291 -18.836000442504883,-30.4060001373291 C-18.836000442504883,-30.4060001373291 -14.111000061035156,-30.4060001373291 -14.111000061035156,-30.4060001373291 C-14.111000061035156,-30.4060001373291 -14.111000061035156,-5.443999767303467 -14.111000061035156,-5.443999767303467 C-14.111000061035156,-5.443999767303467 -18.836000442504883,-5.443999767303467 -18.836000442504883,-5.443999767303467 C-18.836000442504883,-5.443999767303467 -18.836000442504883,0 -18.836000442504883,0 C-18.836000442504883,0 -2.553999900817871,0 -2.553999900817871,0z"></path></g><g opacity="1" transform="matrix(1,0,0,1,0,0)"><path fill="rgb(0,0,0)" fill-opacity="1" d=" M-33.95000076293945,-14.946000099182129 C-33.95000076293945,-14.946000099182129 -43.400001525878906,-14.946000099182129 -43.400001525878906,-14.946000099182129 C-43.400001525878906,-14.946000099182129 -38.82899856567383,-29.687000274658203 -38.82899856567383,-29.687000274658203 C-38.82899856567383,-29.687000274658203 -38.573001861572266,-29.687000274658203 -38.573001861572266,-29.687000274658203 C-38.573001861572266,-29.687000274658203 -33.95000076293945,-14.946000099182129 -33.95000076293945,-14.946000099182129z M-22.393999099731445,0 C-22.393999099731445,0 -34.310001373291016,-35.849998474121094 -34.310001373291016,-35.849998474121094 C-34.310001373291016,-35.849998474121094 -42.733001708984375,-35.849998474121094 -42.733001708984375,-35.849998474121094 C-42.733001708984375,-35.849998474121094 -54.750999450683594,0 -54.750999450683594,0 C-54.750999450683594,0 -47.86899948120117,0 -47.86899948120117,0 C-47.86899948120117,0 -45.04399871826172,-9.142000198364258 -45.04399871826172,-9.142000198364258 C-45.04399871826172,-9.142000198364258 -32.305999755859375,-9.142000198364258 -32.305999755859375,-9.142000198364258 C-32.305999755859375,-9.142000198364258 -29.43000030517578,0 -29.43000030517578,0 C-29.43000030517578,0 -22.393999099731445,0 -22.393999099731445,0z"></path></g><g opacity="1" transform="matrix(1,0,0,1,0,0)"><path fill="rgb(0,0,0)" fill-opacity="1" d=" M-69.75299835205078,-22.496000289916992 C-66.36299896240234,-22.496000289916992 -64.46199798583984,-19.979000091552734 -64.46199798583984,-16.2810001373291 C-64.46199798583984,-16.2810001373291 -64.46199798583984,-15.819000244140625 -64.46199798583984,-15.819000244140625 C-64.46199798583984,-15.819000244140625 -75.4540023803711,-15.819000244140625 -75.4540023803711,-15.819000244140625 C-75.4540023803711,-15.819000244140625 -75.4540023803711,-16.229999542236328 -75.4540023803711,-16.229999542236328 C-75.4540023803711,-19.92799949645996 -73.19400024414062,-22.496000289916992 -69.75299835205078,-22.496000289916992z M-69.6500015258789,0.6159999966621399 C-64.66799926757812,0.6159999966621399 -60.76499938964844,-1.284000039100647 -58.555999755859375,-4.314000129699707 C-58.555999755859375,-4.314000129699707 -62.099998474121094,-8.269000053405762 -62.099998474121094,-8.269000053405762 C-63.74399948120117,-6.163000106811523 -65.69499969482422,-4.622000217437744 -68.93099975585938,-4.622000217437744 C-73.24500274658203,-4.622000217437744 -75.4540023803711,-7.242000102996826 -75.4540023803711,-11.093999862670898 C-75.4540023803711,-11.093999862670898 -75.4540023803711,-11.76200008392334 -75.4540023803711,-11.76200008392334 C-75.4540023803711,-11.76200008392334 -57.63100051879883,-11.76200008392334 -57.63100051879883,-11.76200008392334 C-57.63100051879883,-11.76200008392334 -57.63100051879883,-13.918999671936035 -57.63100051879883,-13.918999671936035 C-57.63100051879883,-21.263999938964844 -61.483001708984375,-27.427000045776367 -69.8550033569336,-27.427000045776367 C-77.71299743652344,-27.427000045776367 -82.28500366210938,-21.93199920654297 -82.28500366210938,-13.456999778747559 C-82.28500366210938,-4.880000114440918 -77.55999755859375,0.6159999966621399 -69.6500015258789,0.6159999966621399z"></path></g><g opacity="1" transform="matrix(1,0,0,1,0,0)"><path fill="rgb(0,0,0)" fill-opacity="1" d=" M-98.21099853515625,-22.496000289916992 C-94.82099914550781,-22.496000289916992 -92.91999816894531,-19.979000091552734 -92.91999816894531,-16.2810001373291 C-92.91999816894531,-16.2810001373291 -92.91999816894531,-15.819000244140625 -92.91999816894531,-15.819000244140625 C-92.91999816894531,-15.819000244140625 -103.91200256347656,-15.819000244140625 -103.91200256347656,-15.819000244140625 C-103.91200256347656,-15.819000244140625 -103.91200256347656,-16.229999542236328 -103.91200256347656,-16.229999542236328 C-103.91200256347656,-19.92799949645996 -101.6520004272461,-22.496000289916992 -98.21099853515625,-22.496000289916992z M-98.10800170898438,0.6159999966621399 C-93.1259994506836,0.6159999966621399 -89.2229995727539,-1.284000039100647 -87.01399993896484,-4.314000129699707 C-87.01399993896484,-4.314000129699707 -90.55799865722656,-8.269000053405762 -90.55799865722656,-8.269000053405762 C-92.2020034790039,-6.163000106811523 -94.15299987792969,-4.622000217437744 -97.38899993896484,-4.622000217437744 C-101.7030029296875,-4.622000217437744 -103.91200256347656,-7.242000102996826 -103.91200256347656,-11.093999862670898 C-103.91200256347656,-11.093999862670898 -103.91200256347656,-11.76200008392334 -103.91200256347656,-11.76200008392334 C-103.91200256347656,-11.76200008392334 -86.08899688720703,-11.76200008392334 -86.08899688720703,-11.76200008392334 C-86.08899688720703,-11.76200008392334 -86.08899688720703,-13.918999671936035 -86.08899688720703,-13.918999671936035 C-86.08899688720703,-21.263999938964844 -89.94100189208984,-27.427000045776367 -98.31300354003906,-27.427000045776367 C-106.1709976196289,-27.427000045776367 -110.74299621582031,-21.93199920654297 -110.74299621582031,-13.456999778747559 C-110.74299621582031,-4.880000114440918 -106.01799774169922,0.6159999966621399 -98.10800170898438,0.6159999966621399z"></path></g><g opacity="1" transform="matrix(1,0,0,1,0,0)"><path fill="rgb(0,0,0)" fill-opacity="1" d=" M-135.5679931640625,-30.097999572753906 C-135.5679931640625,-30.097999572753906 -127.19599914550781,-30.097999572753906 -127.19599914550781,-30.097999572753906 C-124.73100280761719,-30.097999572753906 -123.29199981689453,-28.711000442504883 -123.29199981689453,-26.297000885009766 C-123.29199981689453,-26.297000885009766 -123.29199981689453,-24.704999923706055 -123.29199981689453,-24.704999923706055 C-123.29199981689453,-22.341999053955078 -124.73100280761719,-20.90399932861328 -127.19599914550781,-20.90399932861328 C-127.19599914550781,-20.90399932861328 -135.5679931640625,-20.90399932861328 -135.5679931640625,-20.90399932861328 C-135.5679931640625,-20.90399932861328 -135.5679931640625,-30.097999572753906 -135.5679931640625,-30.097999572753906z M-135.5679931640625,-15.357000350952148 C-135.5679931640625,-15.357000350952148 -126.11699676513672,-15.357000350952148 -126.11699676513672,-15.357000350952148 C-123.54900360107422,-15.357000350952148 -122.00800323486328,-13.918999671936035 -122.00800323486328,-11.402000427246094 C-122.00800323486328,-11.402000427246094 -122.00800323486328,-9.656000137329102 -122.00800323486328,-9.656000137329102 C-122.00800323486328,-7.138999938964844 -123.54900360107422,-5.751999855041504 -126.11699676513672,-5.751999855041504 C-126.11699676513672,-5.751999855041504 -135.5679931640625,-5.751999855041504 -135.5679931640625,-5.751999855041504 C-135.5679931640625,-5.751999855041504 -135.5679931640625,-15.357000350952148 -135.5679931640625,-15.357000350952148z M-142.3470001220703,0 C-142.3470001220703,0 -124.16500091552734,0 -124.16500091552734,0 C-118.875,0 -114.91999816894531,-4.519999980926514 -114.91999816894531,-10.272000312805176 C-114.91999816894531,-16.384000778198242 -119.54299926757812,-18.593000411987305 -122.6760025024414,-18.643999099731445 C-122.6760025024414,-18.643999099731445 -122.6760025024414,-18.95199966430664 -122.6760025024414,-18.95199966430664 C-119.38899993896484,-19.156999588012695 -116.25599670410156,-21.211999893188477 -116.25599670410156,-26.6560001373291 C-116.25599670410156,-32.202999114990234 -119.85099792480469,-35.849998474121094 -125.75800323486328,-35.849998474121094 C-125.75800323486328,-35.849998474121094 -142.3470001220703,-35.849998474121094 -142.3470001220703,-35.849998474121094 C-142.3470001220703,-35.849998474121094 -142.3470001220703,0 -142.3470001220703,0z"></path></g></g></g></svg>