<svg xmlns="http://www.w3.org/2000/svg" width="320" height="72" viewBox="0 0 320 72"><path d="M290.05 72c-3.82 0-7.66-1.48-10.58-4.4a15.06 15.06 0 0 1 0-21.2L305 20.76V57A15.02 15.02 0 0 1 290.05 72ZM263.7 45.55a14.95 14.95 0 0 1-14.96-15.01 15 15 0 0 1 4.38-10.61 14.9 14.9 0 0 1 10.58-4.4h36.1l-25.54 25.62a14.85 14.85 0 0 1-10.57 4.4ZM311.68 21.64c-2-2-2-5.3 0-7.32a5.15 5.15 0 0 1 7.3 0 5.2 5.2 0 0 1 0 7.32 5.15 5.15 0 0 1-7.3 0ZM298.91 8.83a5.17 5.17 0 1 1 7.3-7.34 5.17 5.17 0 0 1-7.3 7.34ZM0 15.75h25.44c9.06 0 14.56 5.6 14.56 14.14 0 8.54-4.8 11.54-9.84 11.86v.47c4.8.08 11.9 3.47 11.9 12.88 0 8.86-6.08 15.81-14.19 15.81H0V15.75Zm10.4 23h12.84c3.77 0 5.98-2.21 5.98-5.85v-2.45c0-3.72-2.2-5.85-5.98-5.85H10.4v14.15Zm0 23.32h14.5c3.94 0 6.29-2.14 6.29-6.01v-2.7c0-3.87-2.36-6.08-6.3-6.08H10.4v14.79ZM48.83 50.2c0-13.03 7.01-21.5 19.06-21.5 12.83 0 18.74 9.48 18.74 20.78v3.32H59.3v1.03c0 5.93 3.39 9.95 10 9.95 4.97 0 7.95-2.37 10.47-5.6l5.44 6.07c-3.39 4.67-9.38 7.6-17.01 7.6-12.14 0-19.38-8.46-19.38-21.66v.01Zm10.47-4.26v.63h16.85v-.71c0-5.7-2.92-9.57-8.1-9.57-5.2 0-8.75 3.96-8.75 9.65ZM92.77 50.2c0-13.03 7.01-21.5 19.06-21.5 12.84 0 18.75 9.48 18.75 20.78v3.32h-27.34v1.03c0 5.93 3.4 9.95 10 9.95 4.97 0 7.96-2.37 10.48-5.6l5.43 6.07c-3.39 4.67-9.36 7.6-17.01 7.6-12.13 0-19.38-8.46-19.38-21.66l.01.01Zm10.47-4.26v.63h16.85v-.71c0-5.7-2.91-9.57-8.1-9.57-5.2 0-8.75 3.96-8.75 9.65ZM174.12 70.91l-4.41-14.06h-19.53l-4.33 14.06h-10.56l18.43-55.16h12.92L184.9 70.9h-10.79Zm-14.01-45.68h-.4l-7 22.68h14.5l-7.1-22.68ZM190.75 70.91v-8.37h7.24V24.12h-7.25v-8.37h24.97v8.37h-7.33v38.4h7.33v8.38h-24.97v.01Z"/></svg>
