<svg xmlns="http://www.w3.org/2000/svg" width="310" height="70" viewBox="0 0 310 70"><path d="M280.52 69.98a14.5 14.5 0 0 1-10.24-24.72L295 20.52V55.5a14.48 14.48 0 0 1-14.49 14.49ZM255 44.44a14.5 14.5 0 0 1-13.44-19.89A14.42 14.42 0 0 1 255 15.46h34.96L265.23 40.2a14.41 14.41 0 0 1-10.25 4.25h.02ZM301.47 21.36a5 5 0 1 1 7.07-7.05 5 5 0 0 1-7.07 7.05ZM289.1 9a5.02 5.02 0 0 1 0-7.07 5.02 5.02 0 0 1 7.08 0 5.02 5.02 0 0 1 0 7.07 5.02 5.02 0 0 1-7.07 0ZM0 15.67h24.64c8.78 0 14.11 5.42 14.11 13.66s-4.65 11.13-9.54 11.44v.46c4.66.08 11.53 3.35 11.53 12.43 0 8.55-5.88 15.26-13.74 15.26H0V15.67Zm10.08 22.2H22.5c3.66 0 5.8-2.13 5.8-5.64v-2.37c0-3.59-2.13-5.64-5.8-5.64H10.08v13.66Zm0 22.52h14.04c3.81 0 6.1-2.07 6.1-5.8v-2.6c0-3.74-2.3-5.87-6.1-5.87H10.08v14.27ZM47.3 48.94c0-12.59 6.8-20.76 18.47-20.76 12.43 0 18.15 9.15 18.15 20.06v3.2H57.45v1c0 5.72 3.28 9.6 9.69 9.6 4.8 0 7.7-2.29 10.14-5.41l5.27 5.87c-3.29 4.5-9.09 7.33-16.48 7.33-11.76 0-18.78-8.16-18.78-20.9h.01Zm10.15-4.12v.6h16.32v-.68c0-5.5-2.83-9.23-7.85-9.23-5.03 0-8.47 3.82-8.47 9.31ZM89.87 48.94c0-12.59 6.8-20.76 18.47-20.76 12.43 0 18.16 9.15 18.16 20.06v3.2h-26.48v1c0 5.72 3.28 9.6 9.69 9.6 4.8 0 7.7-2.29 10.14-5.41l5.27 5.87c-3.29 4.5-9.08 7.33-16.48 7.33-11.75 0-18.78-8.16-18.78-20.9h.01Zm10.15-4.12v.6h16.32v-.68c0-5.5-2.83-9.23-7.85-9.23-5.03 0-8.47 3.82-8.47 9.31ZM168.68 68.92l-4.27-13.57h-18.92l-4.2 13.57h-10.22l17.85-53.25h12.51l17.7 53.25h-10.45Zm-13.58-44.1h-.37l-6.8 21.9h14.05l-6.86-21.9h-.02ZM184.79 68.92v-8.08h7.02V23.75h-7.02v-8.08h24.18v8.08h-7.1v37.08h7.1v8.08H184.8v.01Z"/></svg>