<svg focusable="false" preserveAspectRatio="xMidYMid meet" fill="currentColor" width="16" height="16" viewBox="0 0 24 24" aria-hidden="true" xmlns="http://www.w3.org/2000/svg"><path d="M5.77 3.62C8.29 5.52 11 9.35 12 11.42c1-2.07 3.7-5.9 6.23-7.8C20.05 2.25 23 1.2 23 4.56c0 .67-.39 5.64-.61 6.45-.79 2.8-3.65 3.52-6.2 3.09 4.46.76 5.59 3.26 3.14 5.77-4.64 4.77-6.67-1.2-7.19-2.72-.1-.28-.14-.41-.14-.3 0-.11-.04.02-.14.3-.52 1.53-2.55 7.49-7.2 2.72-2.44-2.5-1.3-5.01 3.14-5.77-2.54.43-5.4-.28-6.19-3.09-.23-.8-.61-5.78-.61-6.45 0-3.36 2.95-2.3 4.77-.94z"/></svg>