<svg width="255" height="160" viewBox="0 0 255 160" fill="none" xmlns="http://www.w3.org/2000/svg">
<rect width="255" height="160" rx="8" fill="#F2F4F8"/>
<rect x="27" y="23" width="202" height="24" rx="4" fill="white"/>
<rect x="27" y="67" width="202" height="24" rx="4" fill="white"/>
<rect x="27" y="111" width="202" height="24" rx="4" fill="white"/>
<path d="M128.146 63.3536C128.342 63.5488 128.658 63.5488 128.854 63.3536L132.036 60.1716C132.231 59.9763 132.231 59.6597 132.036 59.4645C131.84 59.2692 131.524 59.2692 131.328 59.4645L128.5 62.2929L125.672 59.4645C125.476 59.2692 125.16 59.2692 124.964 59.4645C124.769 59.6597 124.769 59.9763 124.964 60.1716L128.146 63.3536ZM128 47V63H129V47H128Z" fill="black"/>
<path d="M128.146 107.354C128.342 107.549 128.658 107.549 128.854 107.354L132.036 104.172C132.231 103.976 132.231 103.66 132.036 103.464C131.84 103.269 131.524 103.269 131.328 103.464L128.5 106.293L125.672 103.464C125.476 103.269 125.16 103.269 124.964 103.464C124.769 103.66 124.769 103.976 124.964 104.172L128.146 107.354ZM128 91V107H129V91H128Z" fill="black"/>
<path d="M42.658 40H36.232V38.964H38.962V31.096H38.864L36.4 33.392L35.714 32.65L38.304 30.228H40.138V38.964H42.658V40Z" fill="black"/>
<path d="M42.462 82.964V84H36.05V82.796L39.242 79.856C40.152 79.016 40.852 78.036 40.852 77.098V76.93C40.852 75.852 40.25 75.11 39.046 75.11C37.842 75.11 37.282 75.838 37.016 76.762L35.966 76.356C36.344 75.208 37.212 74.06 39.102 74.06C41.006 74.06 42.098 75.236 42.098 76.902C42.098 78.414 41.202 79.478 39.956 80.598L37.324 82.964H42.462Z" fill="black"/>
<path d="M37.59 122.372H38.654C39.97 122.372 40.642 121.686 40.642 120.748V120.65C40.642 119.628 39.928 119.11 38.892 119.11C37.884 119.11 37.282 119.586 36.876 120.328L36.008 119.656C36.498 118.872 37.352 118.06 38.92 118.06C40.572 118.06 41.888 118.942 41.888 120.524C41.888 121.784 41.048 122.54 40.012 122.806V122.862C41.062 123.072 42.07 123.856 42.07 125.326C42.07 127.006 40.74 128.168 38.752 128.168C37.058 128.168 36.19 127.342 35.588 126.502L36.47 125.83C36.974 126.6 37.548 127.118 38.738 127.118C40.11 127.118 40.838 126.46 40.838 125.312V125.2C40.838 124.052 40.11 123.394 38.738 123.394H37.59V122.372Z" fill="black"/>
</svg>
