<svg width="255" height="160" viewBox="0 0 255 160" fill="none" xmlns="http://www.w3.org/2000/svg">
<rect width="255" height="160" rx="8" fill="#F2F4F8"/>
<rect x="27.5" y="23.5" width="201" height="23" rx="3.5" fill="white" stroke="black"/>
<rect x="27" y="75" width="89" height="24" rx="4" fill="white"/>
<rect x="83" y="116" width="89" height="24" rx="4" fill="white"/>
<path d="M127.646 114.354C127.842 114.549 128.158 114.549 128.354 114.354L131.536 111.172C131.731 110.976 131.731 110.66 131.536 110.464C131.34 110.269 131.024 110.269 130.828 110.464L128 113.293L125.172 110.464C124.976 110.269 124.66 110.269 124.464 110.464C124.269 110.66 124.269 110.976 124.464 111.172L127.646 114.354ZM127.5 47V114H128.5V47H127.5Z" fill="black"/>
<rect x="140" y="75" width="89" height="24" rx="4" fill="white"/>
<path d="M71.8964 72.3536C72.0917 72.5488 72.4083 72.5488 72.6036 72.3536L75.7855 69.1716C75.9808 68.9763 75.9808 68.6597 75.7855 68.4645C75.5903 68.2692 75.2737 68.2692 75.0784 68.4645L72.25 71.2929L69.4216 68.4645C69.2263 68.2692 68.9097 68.2692 68.7145 68.4645C68.5192 68.6597 68.5192 68.9763 68.7145 69.1716L71.8964 72.3536ZM120.25 56.2593V56.7593H120.75V56.2593H120.25ZM72.25 56.2593V55.7593H71.75V56.2593H72.25ZM119.75 47V56.2593H120.75V47H119.75ZM120.25 55.7593H72.25V56.7593H120.25V55.7593ZM71.75 56.2593V72H72.75V56.2593H71.75Z" fill="black"/>
<path d="M184.604 72.3536C184.408 72.5488 184.092 72.5488 183.896 72.3536L180.714 69.1716C180.519 68.9763 180.519 68.6597 180.714 68.4645C180.91 68.2692 181.226 68.2692 181.422 68.4645L184.25 71.2929L187.078 68.4645C187.274 68.2692 187.59 68.2692 187.786 68.4645C187.981 68.6597 187.981 68.9763 187.786 69.1716L184.604 72.3536ZM136.25 56.2593V56.7593H135.75V56.2593H136.25ZM184.25 56.2593V55.7593H184.75V56.2593H184.25ZM136.75 47V56.2593H135.75V47H136.75ZM136.25 55.7593H184.25V56.7593H136.25V55.7593ZM184.75 56.2593V72H183.75V56.2593H184.75Z" fill="black"/>
</svg>
